ply
format ascii 1.0
element vertex 13
property double x
property double y
property double z
element face 22
property list uchar int vertex_indices
end_header
-414.764 -336.872 45.1514
-378.395 -371.989 36.741
-414.632 -336.741 45.0281
-383.566 -377.17 49.6537
-378.424 -371.96 44.8257
-416.086 -345.44 49.7899
-409.353 -352.009 49.7617
-425.112 -347.517 45.0227
-389.036 -382.841 37.0278
-425.19 -347.599 44.9533
-425.016 -347.769 36.5711
-414.45 -336.917 36.2849
-389.065 -382.813 44.817
3 2 0 5
3 9 7 10
3 3 12 4
3 7 5 0
3 6 12 3
3 9 10 8
3 1 11 2
3 1 8 10
3 4 2 6
3 6 2 5
3 4 6 3
3 10 0 11
3 10 7 0
3 0 2 11
3 4 8 1
3 4 12 8
3 6 5 7
3 9 6 7
3 12 6 9
3 8 12 9
3 2 4 1
3 10 11 1
