ply
format ascii 1.0
element vertex 58
property double x
property double y
property double z
element face 100
property list uchar int vertex_indices
end_header
-444.324 -382.899 44.4035
-399.823 -425.787 44.436
-436.031 -374.15 51.4183
-391.461 -417.17 51.424
-391.311 -382.078 37.4396
-401.931 -372.171 36.4414
-385.8 -387.755 36.4497
-380.311 -393.659 42.0728
-420.696 -346.483 47.3119
-425.194 -347.573 44.9046
-391.497 -382.252 36.4468
-422.522 -344.709 47.3119
-424.644 -346.985 45.3994
-415.464 -341.075 47.3119
-434.159 -392.696 36.6203
-414.658 -336.751 44.9496
-415.257 -410.913 36.6299
-417.278 -339.306 47.3119
-414.676 -336.733 44.9496
-444.218 -383.001 36.6152
-400.284 -425.343 36.6375
-399.823 -425.787 36.6377
-427.495 -365.539 44.1848
-427.441 -365.592 40.1684
-423.364 -361.37 40.6832
-418.348 -356.31 36.4329
-387.241 -386.363 36.449
-414.676 -336.734 44.9258
-409.125 -366.195 36.8559
-364.202 -410.975 42.3171
-386.298 -385.171 36.4415
-387.432 -386.179 36.4489
-383.596 -390.201 38.7422
-384.72 -386.517 36.4416
-374.541 -399.734 40.2711
-382.977 -408.427 44.1554
-373.99 -399.166 36.4558
-374.541 -399.734 36.4597
-374.061 -374.293 36.3619
-387.424 -386.171 34.8617
-385.857 -387.821 36.4501
-374.541 -399.734 42.167
-374.541 -399.734 36.9283
-404.878 -369.324 36.4399
-394.043 -384.633 41.5626
-362.109 -412.823 42.3701
-390.65 -381.46 36.4411
-391.311 -382.078 37.4396
-397.229 -375.848 36.4405
-392.281 -382.985 41.7757
-392.281 -382.985 38.9036
-424.634 -346.996 44.9057
-420.118 -358.096 37.9327
-418.651 -407.641 36.6281
-424.293 -347.355 45.3868
-387.424 -386.171 36.4488
-391.311 -382.078 36.4455
-391.311 -382.078 41.8931
3 2 0 1
3 12 54 8
3 9 54 12
3 18 17 13
3 1 16 20
3 23 22 24
3 2 19 0
3 15 13 27
3 42 37 36
3 21 3 1
3 6 39 33
3 47 46 48
3 29 50 44
3 32 50 34
3 28 43 25
3 36 6 42
3 22 2 3
3 11 8 13
3 51 9 12
3 12 11 51
3 18 15 27
3 41 29 49
3 49 29 44
3 56 46 47
3 50 49 44
3 39 55 30
3 48 46 56
3 33 38 30
3 30 26 33
3 43 14 25
3 36 37 40
3 10 53 14
3 16 53 10
3 31 26 16
3 39 40 26
3 48 56 47
3 32 7 57
3 41 7 32
3 41 34 45
3 1 3 2
3 8 11 12
3 13 15 18
3 14 0 19
3 14 53 0
3 1 53 16
3 1 20 21
3 0 53 1
3 2 23 19
3 2 22 23
3 23 24 52
3 23 52 25
3 23 25 19
3 13 8 51
3 27 13 51
3 8 54 51
3 54 9 51
3 21 35 3
3 21 37 35
3 37 42 35
3 6 40 39
3 39 38 33
3 34 50 29
3 32 4 50
3 34 29 45
3 25 52 28
3 6 26 35
3 42 6 35
3 26 31 35
3 31 10 35
3 10 5 22
3 24 22 28
3 22 43 28
3 28 52 24
3 5 43 22
3 10 22 35
3 3 35 22
3 13 17 11
3 51 17 27
3 51 11 17
3 17 18 27
3 41 49 7
3 41 45 29
3 57 7 49
3 50 4 57
3 49 50 57
3 30 38 39
3 33 26 6
3 30 55 26
3 43 5 14
3 19 25 14
3 40 6 36
3 14 5 10
3 10 31 16
3 16 40 20
3 16 26 40
3 40 37 20
3 37 21 20
3 26 55 39
3 57 4 32
3 32 34 41
